<svg xmlns="http://www.w3.org/2000/svg" viewBox="0 0 512 512">
  <defs>
    <linearGradient id="bg" x1="0" y1="0" x2="1" y2="1">
      <stop offset="0" stop-color="#1A7A61"/>
      <stop offset="0.5" stop-color="#0E4739"/>
      <stop offset="1" stop-color="#081F1A"/>
    </linearGradient>
    <linearGradient id="gold" x1="0" y1="0" x2="1" y2="1">
      <stop offset="0" stop-color="#F7E7B2"/>
      <stop offset="0.5" stop-color="#D9B75E"/>
      <stop offset="1" stop-color="#B8842A"/>
    </linearGradient>
    <filter id="shadow" x="-20%" y="-20%" width="140%" height="140%">
      <feDropShadow dx="0" dy="18" stdDeviation="18" flood-color="#04150F" flood-opacity="0.35"/>
    </filter>
  </defs>

  <rect width="512" height="512" rx="120" fill="url(#bg)"/>
  <circle cx="392" cy="148" r="54" fill="none" stroke="#F5D77A" stroke-opacity="0.7" stroke-width="8"/>
  <path d="M394 86a58 58 0 1 1 0 116a44 44 0 1 0 0-116z" fill="#F7E7B2" fill-opacity="0.9"/>
  <path d="M420 98a42 42 0 0 1-58 58a30 30 0 1 0 58-58z" fill="#1A7A61"/>

  <g filter="url(#shadow)">
    <path d="M128 336c0-29 24-53 53-53h74v170h-74c-29 0-53-24-53-53V336z" fill="#F6F1E5"/>
    <path d="M384 336c0-29-24-53-53-53h-74v170h74c29 0 53-24 53-53V336z" fill="#FDF7EE"/>
    <path d="M256 286v170" stroke="url(#gold)" stroke-width="14" stroke-linecap="round"/>
    <path d="M170 242c24-18 47-29 86-30v50c-34 0-62 12-86 35V242z" fill="#E8D7A0" opacity="0.8"/>
    <path d="M342 242c-24-18-47-29-86-30v50c34 0 62 12 86 35V242z" fill="#E8D7A0" opacity="0.8"/>
    <path d="M188 176c18-14 38-23 68-28l0 40c-19 2-35 10-52 23l-16-35z" fill="#F7E7B2" opacity="0.95"/>
    <path d="M324 176c-18-14-38-23-68-28l0 40c19 2 35 10 52 23l16-35z" fill="#F7E7B2" opacity="0.95"/>
    <path d="M256 168l24 52-24 54-24-54 24-52z" fill="#D9B75E"/>
  </g>

  <path d="M92 390c55-42 88-59 164-64v32c-63 4-102 22-156 58l-8-26z" fill="#E7B14B" opacity="0.18"/>
  <path d="M420 390c-55-42-88-59-164-64v32c63 4 102 22 156 58l8-26z" fill="#E7B14B" opacity="0.18"/>
  <circle cx="158" cy="148" r="8" fill="#F7E7B2"/>
  <circle cx="360" cy="112" r="6" fill="#F7E7B2"/>
  <circle cx="430" cy="210" r="7" fill="#F7E7B2"/>
</svg>
